<svg aria-hidden="true" style="position: absolute; width: 0; height: 0; overflow: hidden;" version="1.1" xmlns="http://www.w3.org/2000/svg" xmlns:xlink="http://www.w3.org/1999/xlink">
<defs>
<symbol id="icon-lampa" viewBox="0 0 22 32">
<path d="M11.040 0c-5.309 0-11.040 4.206-11.040 11 0 3.353 1.339 6.174 3.91 8.312 0.027 0.033 0.058 0.062 0.092 0.088 1.908 2.062 2.004 2.453 2.017 3.36 0.006 0.359 0.003 0.466 0 0.523l-0.004 0.209c-0.015 0.452-0.038 1.209 0.902 1.495l8.122 1.781c0.037 0.008 0.072 0.012 0.107 0.012 0.231 0 0.44-0.159 0.49-0.394 0.061-0.27-0.111-0.536-0.382-0.596l-8.084-1.771c-0.156-0.047-0.169-0.052-0.155-0.498l0.003-0.191c0 0 0.010-0.078 0.002-0.586-0.019-1.27-0.296-1.882-2.317-4.059-0.038-0.046-0.085-0.085-0.137-0.117-2.365-2.002-3.563-4.548-3.563-7.568 0-6.177 5.209-10 10.036-10 4.934 0 10.036 3.741 10.036 10 0 3.978-1.935 6.171-3.531 7.551-0.056 0.026-0.104 0.063-0.148 0.109-2.044 2.204-2.321 2.816-2.34 4.086 0 0.029-0.001 0.064 0 0.104l-0.001 0.034c-0.003 0.076-0.014 0.118-0.014 0.134-0.033-0.005-0.116-0.018-0.116-0.018l-4.21-0.987c-0.273-0.062-0.54 0.104-0.603 0.372-0.063 0.27 0.103 0.538 0.373 0.603l4.159 0.972c0.055 0.020 0.555 0.182 0.977-0.113 0.185-0.129 0.397-0.382 0.437-0.865l0.003-0.047c0.001-0.033 0.002-0.065 0.002-0.1 0-0.009 0-0.018-0.001-0.025l0.001-0.047c0.014-0.902 0.107-1.294 2.012-3.355 0.009-0.008 0.019-0.014 0.027-0.022 2.676-2.243 3.977-4.986 3.977-8.386 0-6.885-5.613-11-11.040-11z"></path>
<path d="M15.055 29.5c0.23 0 0.438-0.157 0.488-0.391 0.062-0.269-0.106-0.536-0.378-0.598l-8.029-1.813c-0.272-0.060-0.539 0.108-0.6 0.377-0.062 0.269 0.107 0.537 0.378 0.598l8.029 1.814c0.039 0.009 0.076 0.013 0.112 0.013z"></path>
<path d="M7.637 29.554c-0.272-0.060-0.538 0.109-0.6 0.378-0.060 0.271 0.109 0.537 0.38 0.598l6.524 1.458c0.038 0.008 0.074 0.012 0.11 0.012 0.23 0 0.438-0.158 0.49-0.391 0.060-0.271-0.109-0.537-0.38-0.598l-6.524-1.457z"></path>
</symbol>
<symbol id="icon-tablet" viewBox="0 0 32 32">
<path d="M1.5 32h14c0.276 0 0.5-0.225 0.5-0.5s-0.224-0.5-0.5-0.5h-14c-0.276 0-0.5-0.225-0.5-0.5v-29c0-0.276 0.224-0.5 0.5-0.5h21c0.275 0 0.5 0.224 0.5 0.5v5c0 0.276 0.225 0.5 0.5 0.5s0.5-0.224 0.5-0.5v-5c0-0.827-0.673-1.5-1.5-1.5h-21c-0.827 0-1.5 0.673-1.5 1.5v29c0 0.827 0.673 1.5 1.5 1.5z"></path>
<path d="M18 10.5v20c0 0.827 0.673 1.5 1.5 1.5h11c0.827 0 1.5-0.673 1.5-1.5v-20c0-0.827-0.673-1.5-1.5-1.5h-11c-0.827 0-1.5 0.673-1.5 1.5zM31 10.5v20c0 0.275-0.225 0.5-0.5 0.5h-11c-0.275 0-0.5-0.225-0.5-0.5v-20c0-0.276 0.225-0.5 0.5-0.5h11c0.275 0 0.5 0.224 0.5 0.5z"></path>
<path d="M12 29c0.552 0 1-0.448 1-1s-0.448-1-1-1c-0.552 0-1 0.448-1 1s0.448 1 1 1z"></path>
<path d="M25 29c0.552 0 1-0.448 1-1s-0.448-1-1-1c-0.552 0-1 0.448-1 1s0.448 1 1 1z"></path>
</symbol>
<symbol id="icon-diagram" viewBox="0 0 42 32">
<path d="M38.936 0c-1.651 0-2.995 1.346-2.995 3 0 0.888 0.395 1.679 1.010 2.229l-8.787 14.031c-0.37-0.165-0.778-0.26-1.209-0.26-0.867 0-1.642 0.376-2.189 0.967l-9.058-5.745c0.168-0.374 0.266-0.786 0.266-1.222 0-1.654-1.344-3-2.995-3s-2.995 1.346-2.995 3c0 0.904 0.409 1.706 1.042 2.256l-6.884 10.974c-0.353-0.147-0.741-0.23-1.147-0.23-1.651 0-2.995 1.346-2.995 3s1.344 3 2.995 3 2.995-1.346 2.995-3c0-0.888-0.394-1.678-1.008-2.229l6.893-10.989c0.342 0.138 0.714 0.218 1.104 0.218 0.858 0 1.626-0.367 2.172-0.947l9.063 5.748c-0.161 0.368-0.254 0.772-0.254 1.199 0 1.654 1.344 3 2.995 3s2.995-1.346 2.995-3c0-0.863-0.37-1.636-0.955-2.184l8.797-14.046c0.352 0.147 0.739 0.23 1.144 0.23 1.651 0 2.995-1.346 2.995-3s-1.344-3-2.995-3zM4.992 29c0 1.104-0.896 2-1.997 2s-1.997-0.896-1.997-2c0-1.104 0.896-2 1.997-2s1.997 0.896 1.997 2zM12.979 15c-1.101 0-1.997-0.897-1.997-2s0.896-2 1.997-2c1.101 0 1.997 0.897 1.997 2s-0.896 2-1.997 2zM26.956 24c-1.102 0-1.997-0.896-1.997-2s0.895-2 1.997-2c1.102 0 1.997 0.896 1.997 2s-0.895 2-1.997 2zM38.936 5c-1.102 0-1.996-0.897-1.996-2s0.895-2 1.996-2c1.102 0 1.997 0.897 1.997 2s-0.895 2-1.997 2z"></path>
</symbol>
<symbol id="icon-facebook" viewBox="0 0 32 32">
<path d="M28 0h-24c-2.2 0-4 1.801-4 4v24c0 2.202 1.8 4 4 4h12.139v-11.475h-3.834v-4.998h3.834v-2.504c0-3.861 2.848-6.884 6.485-6.884h3.533v5.643h-3.16c-0.824 0-1.071 0.474-1.071 1.131v2.613h4.232v4.998h-4.232v11.475h6.074c2.202 0 4-1.798 4-4v-24c0-2.199-1.798-4-4-4z"></path>
</symbol>
<symbol id="icon-twitter" viewBox="0 0 32 32">
<path d="M32 6.633c-1.179 0.521-2.443 0.875-3.771 1.033 1.355-0.812 2.396-2.1 2.885-3.63-1.266 0.752-2.672 1.298-4.167 1.591-1.198-1.275-2.907-2.071-4.793-2.071-3.625 0-6.565 2.937-6.565 6.564 0 0.514 0.057 1.015 0.171 1.497-5.458-0.276-10.295-2.889-13.532-6.859-0.565 0.969-0.889 2.098-0.889 3.298 0 2.279 1.159 4.288 2.921 5.465-1.076-0.034-2.089-0.329-2.974-0.82 0 0.027 0 0.053 0 0.082 0 3.18 2.263 5.836 5.266 6.437-0.551 0.149-1.131 0.229-1.73 0.229-0.421 0-0.834-0.037-1.234-0.116 0.834 2.61 3.26 4.507 6.132 4.56-2.245 1.76-5.076 2.809-8.151 2.809-0.532 0-1.052-0.032-1.566-0.094 2.905 1.865 6.356 2.949 10.064 2.949 12.075 0 18.679-10.004 18.679-18.677 0-0.286-0.007-0.571-0.021-0.852 1.282-0.921 2.396-2.078 3.276-3.396z"></path>
</symbol>
<symbol id="icon-in" viewBox="0 0 32 32">
<path d="M7.247 3.42c0 1.89-1.395 3.42-3.691 3.42-2.161 0.002-3.556-1.528-3.556-3.42 0-1.935 1.44-3.42 3.646-3.42 2.204 0 3.556 1.485 3.601 3.42zM0.181 31.552v-22.010h6.84v22.008l-6.84 0.002z"></path>
<path d="M11.115 16.565c0-2.746-0.088-5.041-0.179-7.021h5.941l0.316 3.061h0.134c0.9-1.442 3.106-3.556 6.795-3.556 4.501-0.002 7.878 3.014 7.878 9.496v13.007h-6.842v-12.198c0-2.835-0.988-4.77-3.465-4.77-1.892 0-3.016 1.304-3.509 2.566-0.183 0.45-0.226 1.080-0.226 1.709v12.693h-6.842v-14.987z"></path>
</symbol>
<symbol id="icon-be" viewBox="0 0 32 32">
<path d="M12.83 15.025c0 0 3.008-0.233 3.008-3.908 0.002-3.676-2.46-5.47-5.577-5.47h-10.261v20.54h10.261c0 0 6.263 0.207 6.263-6.065 0 0 0.273-5.097-3.693-5.097zM4.521 9.299h5.737c0 0 1.395 0 1.395 2.138 0 2.136-0.821 2.447-1.751 2.447h-5.382v-4.585zM9.969 22.537h-5.448v-5.491h5.737c0 0 2.078-0.026 2.078 2.82 0.002 2.404-1.551 2.652-2.368 2.671zM24.875 10.874c-7.58 0-7.573 7.889-7.573 7.889s-0.521 7.855 7.573 7.855c0 0 6.746 0.403 6.746-5.463h-3.467c0 0 0.115 2.21-3.162 2.21 0 0-3.473 0.243-3.473-3.576h10.219c0-0.002 1.116-8.915-6.863-8.915zM27.96 17.047h-6.475c0 0 0.424-3.162 3.469-3.162 3.042-0.002 3.006 3.162 3.006 3.162zM28.766 6.857h-8.132v2.532h8.132v-2.532z"></path>
</symbol>
<symbol id="icon-ball" viewBox="0 0 32 32">
<path d="M14.916 11.266c-2.312-4.109-4.783-7.458-4.966-7.703-3.727 1.764-6.509 5.197-7.377 9.335 0.35 0.008 5.922 0.073 12.343-1.632zM16.58 15.757c0.175-0.056 0.352-0.109 0.527-0.158-0.335-0.76-0.702-1.521-1.086-2.274-6.882 2.061-13.491 1.912-13.724 1.905-0.004 0.141-0.009 0.282-0.009 0.425 0 3.437 1.299 6.569 3.43 8.939-0.002-0.004-0.008-0.013-0.008-0.013s3.657-6.49 10.871-8.824zM7.437 26.195l0.002-0.008c-0.098-0.077-0.203-0.147-0.301-0.23 0.177 0.143 0.299 0.237 0.299 0.237zM12.452 2.675c-0.013 0.004-0.023 0.006-0.036 0.008 0.021-0.004 0.036-0.006 0.036-0.008zM24.484 5.621c-2.353-2.074-5.444-3.336-8.828-3.336-1.088 0-2.14 0.132-3.149 0.376 0.203 0.269 2.711 3.603 4.998 7.799 5.039-1.888 6.944-4.783 6.98-4.84zM15.654 31.309c-8.644 0-15.654-7.010-15.654-15.656s7.010-15.654 15.654-15.654c8.644 0 15.654 7.010 15.654 15.654s-7.008 15.656-15.654 15.656zM17.928 17.843c-7.846 2.733-10.436 8.235-10.488 8.346 2.268 1.773 5.114 2.839 8.215 2.839 1.85 0 3.616-0.38 5.218-1.060-0.198-1.171-0.975-5.267-2.856-10.152-0.028 0.008-0.056 0.017-0.088 0.026zM18.53 12.454c0.314 0.636 0.612 1.286 0.89 1.939 0.1 0.23 0.196 0.461 0.288 0.689 4.617-0.58 9.165 0.405 9.312 0.439-0.032-3.174-1.165-6.080-3.040-8.358-0.028 0.041-2.172 3.136-7.45 5.291zM20.521 17.195c1.756 4.823 2.47 8.749 2.603 9.547 3-2.027 5.137-5.239 5.732-8.968-0.267-0.085-4.011-1.272-8.335-0.58z"></path>
</symbol>
<symbol id="icon-instagram" viewBox="0 0 32 32">
<path d="M25.672 15.998c0 5.342-4.335 9.673-9.675 9.673-5.342 0-9.672-4.331-9.672-9.673 0-0.636 0.062-1.257 0.181-1.86h-6.505v12.858c0 2.761 2.238 5 5 5h21.997c2.756 0 5-2.238 5-5v-12.858h-6.505c0.119 0.602 0.181 1.224 0.181 1.86zM26.997 0h-21.997c-2.761 0-5 2.238-5 5v5.417h8.1c1.751-2.475 4.636-4.092 7.896-4.092 3.264 0 6.15 1.615 7.896 4.092h8.104v-5.417c0-2.761-2.244-5-5-5zM29.442 6.176c0 0.491-0.405 0.894-0.894 0.894h-2.68c-0.493 0-0.892-0.401-0.892-0.894v-2.679c0-0.491 0.399-0.894 0.892-0.894h2.68c0.489 0 0.894 0.401 0.894 0.894v2.679zM21.948 15.998c0-3.288-2.664-5.954-5.952-5.954-3.285 0-5.952 2.667-5.952 5.954s2.667 5.95 5.952 5.95c3.288 0 5.952-2.664 5.952-5.95z"></path>
</symbol>
<symbol id="icon-facebook-header" viewBox="0 0 19 32">
<path d="M18.070 5.619h-5.129c-0.608 0-1.286 0.798-1.286 1.865v3.706h6.415v5.28h-6.413v15.857h-6.056v-15.857h-5.491v-5.28h5.491v-3.11c0-4.456 3.093-8.081 7.339-8.081h5.129v5.619z"></path>
</symbol>
</defs>
</svg>
